<?xml version="1.0" encoding="utf-8"?>
<!-- Generator: Adobe Illustrator 13.0.0, SVG Export Plug-In . SVG Version: 6.00 Build 14948)  -->
<!DOCTYPE svg PUBLIC "-//W3C//DTD SVG 1.1//EN" "http://www.w3.org/Graphics/SVG/1.1/DTD/svg11.dtd">
<svg version="1.1" id="Layer_5" xmlns="http://www.w3.org/2000/svg" xmlns:xlink="http://www.w3.org/1999/xlink" x="0px" y="0px"
	 width="74.5px" height="74px" viewBox="0 0 74.5 74" enable-background="new 0 0 74.5 74" xml:space="preserve">
<g>
	<path d="M75.084,54.702c0,10.692-8.748,19.44-19.439,19.44H19.19c-10.692,0-19.44-8.748-19.44-19.44V18.583
		c0-10.692,8.748-19.44,19.44-19.44h36.454c10.691,0,19.439,8.748,19.439,19.44V54.702z"/>
</g>
<g>
	<g>
		<g>
			<path fill="none" stroke="#FFFFFF" stroke-width="3" stroke-linecap="round" d="M62.587,37.583
				c0-13.909-11.256-25.165-25.167-25.165S12.254,23.674,12.254,37.583c0,13.911,11.256,25.167,25.167,25.167
				S62.587,51.494,62.587,37.583z"/>
			<path fill="none" stroke="#FFFFFF" stroke-width="3" stroke-linecap="round" d="M37.42,54.825
				c-9.537,0-17.241-7.705-17.241-17.242c0-9.535,7.704-17.24,17.241-17.24s17.241,7.705,17.241,17.24
				C54.661,47.12,46.957,54.825,37.42,54.825z"/>
		</g>
	</g>
	<g>
		<line fill="none" stroke="#FFFFFF" stroke-width="4" stroke-linecap="round" x1="26.448" y1="37.638" x2="48.613" y2="37.638"/>
	</g>
</g>
</svg>
