<?xml version="1.0" encoding="iso-8859-1"?>
<!-- Generator: Adobe Illustrator 12.0.1, SVG Export Plug-In . SVG Version: 6.00 Build 51448)  -->
<!DOCTYPE svg PUBLIC "-//W3C//DTD SVG 1.1//EN" "http://www.w3.org/Graphics/SVG/1.1/DTD/svg11.dtd" [
	<!ENTITY ns_svg "http://www.w3.org/2000/svg">
	<!ENTITY ns_xlink "http://www.w3.org/1999/xlink">
]>
<svg  version="1.1" id="Layer_1" xmlns="&ns_svg;" xmlns:xlink="&ns_xlink;" width="32" height="27.2" viewBox="0 0 32 27.2"
	 style="overflow:visible;enable-background:new 0 0 32 27.2;" xml:space="preserve">
<rect y="1.6" width="32" height="25.6"/>
<rect x="1.6" width="1.6" height="2.6"/>
<rect x="8" width="1.6" height="2.9"/>
<rect x="1.6" y="3.2" style="fill:#FFFFFF;" width="8" height="4.8"/>
<rect x="20.8" y="3.2" style="fill:#FFFFFF;" width="8" height="4.8"/>
<rect x="9.4" y="4.8" style="fill:#FFFFFF;" width="12.1" height="1.6"/>
<path style="fill:none;stroke:#FFFFFF;stroke-width:1.6;" d="M8,15.2c0,4,3.2,7.2,7.2,7.2c4,0,7.2-3.2,7.2-7.2c0-4-3.2-7.2-7.2-7.2
	C11.2,8,8,11.2,8,15.2z"/>
<g>
	<path style="fill:#FFFFFF;" d="M10.4,15.2c0,2.6,2.2,4.8,4.8,4.8c2.6,0,4.8-2.2,4.8-4.8s-2.2-4.8-4.8-4.8
		C12.6,10.4,10.4,12.6,10.4,15.2z"/>
	<path d="M15.2,9.6c-3.1,0-5.6,2.5-5.6,5.6c0,3.1,2.5,5.6,5.6,5.6c3.1,0,5.6-2.5,5.6-5.6C20.8,12.1,18.3,9.6,15.2,9.6L15.2,9.6z
		 M11.2,15.2c0-2.2,1.8-4,4-4c2.2,0,4,1.8,4,4l0,0l0,0c0,2.2-1.8,4-4,4C13,19.2,11.2,17.4,11.2,15.2L11.2,15.2L11.2,15.2z"/>
	<path d="M15.2,9.6c-3.1,0-5.6,2.5-5.6,5.6c0,3.1,2.5,5.6,5.6,5.6c3.1,0,5.6-2.5,5.6-5.6C20.8,12.1,18.3,9.6,15.2,9.6L15.2,9.6z
		 M11.2,15.2c0-2.2,1.8-4,4-4c2.2,0,4,1.8,4,4l0,0l0,0c0,2.2-1.8,4-4,4C13,19.2,11.2,17.4,11.2,15.2L11.2,15.2L11.2,15.2z"/>
</g>
</svg>
