<?xml version="1.0" encoding="UTF-8" standalone="no"?>
<!-- Generator: Adobe Illustrator 13.0.0, SVG Export Plug-In . SVG Version: 6.00 Build 14948)  -->
<svg
   xmlns:dc="http://purl.org/dc/elements/1.1/"
   xmlns:cc="http://web.resource.org/cc/"
   xmlns:rdf="http://www.w3.org/1999/02/22-rdf-syntax-ns#"
   xmlns:svg="http://www.w3.org/2000/svg"
   xmlns="http://www.w3.org/2000/svg"
   xmlns:sodipodi="http://sodipodi.sourceforge.net/DTD/sodipodi-0.dtd"
   xmlns:inkscape="http://www.inkscape.org/namespaces/inkscape"
   version="1.1"
   id="Layer_1"
   x="0px"
   y="0px"
   width="76px"
   height="76px"
   viewBox="0 0 76 76"
   enable-background="new 0 0 76 76"
   xml:space="preserve"
   sodipodi:version="0.32"
   inkscape:version="0.45.1"
   sodipodi:docname="save-search.svg"
   sodipodi:docbase="/root/Desktop"
   inkscape:output_extension="org.inkscape.output.svg.inkscape"><metadata
   id="metadata2230"><rdf:RDF><cc:Work
       rdf:about=""><dc:format>image/svg+xml</dc:format><dc:type
         rdf:resource="http://purl.org/dc/dcmitype/StillImage" /></cc:Work></rdf:RDF></metadata><defs
   id="defs2228" /><sodipodi:namedview
   inkscape:window-height="622"
   inkscape:window-width="872"
   inkscape:pageshadow="2"
   inkscape:pageopacity="0.0"
   guidetolerance="10.0"
   gridtolerance="10.0"
   objecttolerance="10.0"
   borderopacity="1.0"
   bordercolor="#666666"
   pagecolor="#ffffff"
   id="base"
   inkscape:zoom="5.3552632"
   inkscape:cx="38"
   inkscape:cy="38"
   inkscape:window-x="127"
   inkscape:window-y="103"
   inkscape:current-layer="Layer_1" />
<g
   id="g2221">
	<path
   d="M75.946,56.313c0,10.692-8.748,19.44-19.44,19.44H20.053c-10.692,0-19.44-8.748-19.44-19.44v-36.12   c0-10.692,8.748-19.44,19.44-19.44h36.453c10.692,0,19.44,8.748,19.44,19.44V56.313z"
   id="path2223" />
</g>

<g
   display="block"
   id="share-link"
   transform="matrix(1.2,0,0,1.2,5.6048,4.5697942)"
   style="display:block">
	<polygon
   display="inline"
   points="27.5,7.266 34.074,20.588 48.774,22.723 38.138,33.092 40.647,47.734 27.5,40.82 14.353,47.734 16.862,33.092 6.226,22.723 20.926,20.588 27.5,7.266 "
   id="polygon5"
   style="fill:#ffffff;stroke:#010101;stroke-width:3.5;display:inline" />
</g></svg>