<?xml version="1.0" encoding="utf-8"?>
<!-- Generator: Adobe Illustrator 13.0.0, SVG Export Plug-In . SVG Version: 6.00 Build 14948)  -->
<!DOCTYPE svg PUBLIC "-//W3C//DTD SVG 1.1//EN" "http://www.w3.org/Graphics/SVG/1.1/DTD/svg11.dtd">
<svg version="1.1" id="Layer_1" xmlns="http://www.w3.org/2000/svg" xmlns:xlink="http://www.w3.org/1999/xlink" x="0px" y="0px"
	 width="75.667px" height="75.333px" viewBox="0 0 75.667 75.333" enable-background="new 0 0 75.667 75.333" xml:space="preserve">
<g>
	<path d="M75.828,55.925c0,10.692-8.748,19.44-19.439,19.44H19.935c-10.692,0-19.44-8.748-19.44-19.44V19.806
		c0-10.692,8.748-19.44,19.44-19.44h36.454c10.691,0,19.439,8.748,19.439,19.44V55.925z"/>
</g>
<g>
	<path fill="none" stroke="#FFFFFF" stroke-width="3" stroke-linecap="round" d="M44.936,43.372
		c-2.121,4.811-6.641,7.477-10.094,5.953c-3.454-1.522,1.952-3.797,4.073-8.608c2.121-4.811,0.156-10.337,3.609-8.813
		C45.979,33.427,47.058,38.562,44.936,43.372z"/>
	<path fill="none" stroke="#FFFFFF" stroke-width="3" stroke-linecap="round" d="M50.594,45.6
		c-3.481,7.896-13.633,11.064-22.676,7.077c-9.041-3.987,3.43-6.133,6.911-14.028c3.481-7.896-3.344-18.551,5.696-14.563
		C49.568,28.072,54.075,37.705,50.594,45.6z"/>
	<path fill="none" stroke="#FFFFFF" stroke-width="3" stroke-linecap="round" d="M58.834,49.5
		c-4.625,10.486-21.741,13.091-38.235,5.818c-16.491-7.272,4.856-8.013,9.479-18.498s-9.226-26.746,7.265-19.474
		C53.837,24.619,63.457,39.015,58.834,49.5z"/>
</g>
</svg>
